<svg xmlns="http://www.w3.org/2000/svg">
    <defs>
        <symbol id="at-sign" viewBox="0 0 24 24">
            <circle cx="12" cy="12" r="4"></circle>
            <path d="M16 8v5a3 3 0 0 0 6 0v-1a10 10 0 1 0-3.92 7.94"></path>
        </symbol>
        <symbol id="edit-2" viewBox="0 0 24 24">
            <path d="M17 3a2.828 2.828 0 1 1 4 4L7.5 20.5 2 22l1.5-5.5L17 3z"></path>
        </symbol>
        <symbol id="info" viewBox="0 0 24 24">
            <circle cx="12" cy="12" r="10"></circle>
            <line x1="12" y1="16" x2="12" y2="12"></line>
            <line x1="12" y1="8" x2="12.01" y2="8"></line>
        </symbol>
        <symbol id="moon" viewBox="0 0 24 24">
            <path d="M21 12.79A9 9 0 1 1 11.21 3 7 7 0 0 0 21 12.79z"></path>
        </symbol>
        <symbol id="search" viewBox="0 0 24 24">
            <circle cx="11" cy="11" r="8"></circle>
            <line x1="21" y1="21" x2="16.65" y2="16.65"></line>
        </symbol>
        <symbol id="send" viewBox="0 0 24 24">
            <line x1="22" y1="2" x2="11" y2="13"></line>
            <polygon points="22 2 15 22 11 13 2 9 22 2"></polygon>
        </symbol>
        <symbol id="share-2" viewBox="0 0 24 24">
            <circle cx="18" cy="5" r="3"></circle>
            <circle cx="6" cy="12" r="3"></circle>
            <circle cx="18" cy="19" r="3"></circle>
            <line x1="8.59" y1="13.51" x2="15.42" y2="17.49"></line>
            <line x1="15.41" y1="6.51" x2="8.59" y2="10.49"></line>
        </symbol>
        <symbol id="sun" viewBox="0 0 24 24">
            <circle cx="12" cy="12" r="5"></circle>
            <line x1="12" y1="1" x2="12" y2="3"></line>
            <line x1="12" y1="21" x2="12" y2="23"></line>
            <line x1="4.22" y1="4.22" x2="5.64" y2="5.64"></line>
            <line x1="18.36" y1="18.36" x2="19.78" y2="19.78"></line>
            <line x1="1" y1="12" x2="3" y2="12"></line>
            <line x1="21" y1="12" x2="23" y2="12"></line>
            <line x1="4.22" y1="19.78" x2="5.64" y2="18.36"></line>
            <line x1="18.36" y1="5.64" x2="19.78" y2="4.22"></line>
        </symbol>
        <symbol id="x" viewBox="0 0 24 24">
            <line x1="18" y1="6" x2="6" y2="18"></line>
            <line x1="6" y1="6" x2="18" y2="18"></line>
        </symbol>
    </defs>
</svg>